<?xml version="1.0" encoding="utf-8"?>
<!-- Generator: Adobe Illustrator 25.0.1, SVG Export Plug-In . SVG Version: 6.00 Build 0)  -->
<svg version="1.1" id="Calque_1" xmlns="http://www.w3.org/2000/svg" xmlns:xlink="http://www.w3.org/1999/xlink" x="0px" y="0px"
	 viewBox="0 0 1512.2 444" style="enable-background:new 0 0 1512.2 444;" xml:space="preserve">
<style type="text/css">
	.st0{fill:none;}
	.st1{fill:#FFFFFF;}
	.st2{font-family:'BerlinSansFB-Reg';}
	.st3{font-size:239.8447px;}
</style>
<g id="Background">
	<rect class="st0" width="1200" height="444"/>
</g>
<g id="Graphic_Element">
	<g>
		<path class="st1" d="M318.8,321.2l-137.5-1l25.5-79.9l40.9-11.2l10.7-25.9l-43.5,11.9L256.7,84c1.4-4.3-1.8-8.8-6.4-8.8L202.4,75
			c-3,0-5.7,2-6.6,4.9l-44.1,152.6l-39.6,10.9l-10.7,25.7l43.1-11.8L111.2,373l198.8,1.4l15.1-44.3
			C326.6,325.8,323.4,321.3,318.8,321.2z"/>
	</g>
</g>
<g id="Text">
	<text transform="matrix(1 7.199813e-03 -7.199813e-03 1 334.0239 303.2348)" class="st1 st2 st3">IVECRYPT</text>
</g>
</svg>
